<svg xmlns="http://www.w3.org/2000/svg" xmlns:xlink="http://www.w3.org/1999/xlink" width="20" height="20" viewBox="0 0 20 20"><defs><style>.a,.c{fill:#f5f5f5;}.a{stroke:#707070;}.b{clip-path:url(#a);}</style><clipPath id="a"><rect class="a" width="20" height="20"/></clipPath></defs><g class="b"><g transform="translate(0 0.451)"><path class="c" d="M28.761,9.983a1.6,1.6,0,0,0-1.638-.35.451.451,0,0,0-.3.361l-.126.867a2.674,2.674,0,0,1-2.635,2.288h-1.8a.451.451,0,0,0-.437.342L20.467,18.9a.451.451,0,0,0,.437.56h2.253a.451.451,0,0,0,.437-.342l.816-3.264h1.758a2.923,2.923,0,0,0,2.848-2.225l.333-1.333A2.37,2.37,0,0,0,28.761,9.983Z" transform="translate(-13.694 -6.839)"/><g transform="translate(0 13.52)"><path class="c" d="M.451,46.779a.451.451,0,0,1-.437-.56l.451-1.794v-.019l.451-1.793a.451.451,0,0,1,.437-.342H2.5a1.127,1.127,0,0,1,1.093,1.4l-.113.451a1.127,1.127,0,0,1-1.093.854H1.254L.889,46.438A.451.451,0,0,1,.451,46.779Zm1.028-2.7h.907A.225.225,0,0,0,2.6,43.9l.113-.451a.224.224,0,0,0-.218-.28H1.7Z" transform="translate(0 -42.273)"/><path class="c" d="M12.114,50.429h-.642a1.249,1.249,0,0,1-1.212-1.552h0l.059-.24a1.2,1.2,0,0,1,1.172-.913h.642a1.249,1.249,0,0,1,1.21,1.553l-.059.24A1.2,1.2,0,0,1,12.114,50.429ZM11.135,49.1a.348.348,0,0,0,.337.432h.642a.3.3,0,0,0,.294-.229l.059-.24a.348.348,0,0,0-.337-.432h-.642a.3.3,0,0,0-.294.229Z" transform="translate(-6.844 -45.922)"/><path class="c" d="M16.814,50.43a.451.451,0,0,1-.437-.56l.451-1.8a.451.451,0,1,1,.875.218l-.451,1.8A.451.451,0,0,1,16.814,50.43Z" transform="translate(-10.955 -45.923)"/></g><g transform="translate(10.816 13.52)"><path class="c" d="M33.177,46.779a.451.451,0,0,1-.437-.56l.451-1.794v-.019l.451-1.793a.451.451,0,0,1,.437-.342h1.146a1.127,1.127,0,0,1,1.093,1.4l-.113.451a1.127,1.127,0,0,1-1.093.854H33.98l-.365,1.461A.451.451,0,0,1,33.177,46.779Zm1.028-2.7h.908a.225.225,0,0,0,.218-.171l.113-.451a.224.224,0,0,0-.218-.28H34.43Z" transform="translate(-32.726 -42.272)"/><path class="c" d="M44.84,50.429H44.2a1.249,1.249,0,0,1-1.212-1.552h0l.059-.24a1.2,1.2,0,0,1,1.172-.913h.642a1.249,1.249,0,0,1,1.212,1.552l-.059.24A1.2,1.2,0,0,1,44.84,50.429ZM43.861,49.1a.348.348,0,0,0,.337.432h.642a.3.3,0,0,0,.294-.229l.059-.24a.348.348,0,0,0-.337-.432h-.642a.3.3,0,0,0-.294.229Z" transform="translate(-39.57 -45.922)"/><path class="c" d="M49.54,50.43a.451.451,0,0,1-.437-.56l.451-1.8a.451.451,0,1,1,.875.218h0l-.451,1.8A.451.451,0,0,1,49.54,50.43Z" transform="translate(-43.681 -45.923)"/></g><g transform="translate(7.21 15.322)"><path class="c" d="M23.169,49.979a.451.451,0,0,1-.375-.2l-.9-1.352a.451.451,0,0,1,.75-.5l.9,1.352a.451.451,0,0,1-.375.7Z" transform="translate(-21.817 -47.725)"/><path class="c" d="M22.268,51.333a.451.451,0,0,1-.346-.739l2.253-2.7a.451.451,0,1,1,.692.578h0l-2.253,2.7A.451.451,0,0,1,22.268,51.333Z" transform="translate(-21.817 -47.727)"/></g><path class="c" d="M54.994,46.778a.451.451,0,0,1-.437-.56l.9-3.605a.451.451,0,0,1,.875.218h0l-.9,3.605A.451.451,0,0,1,54.994,46.778Z" transform="translate(-36.517 -28.752)"/><path class="c" d="M22.708,2.144a2.278,2.278,0,0,0-1.718-.78h-5.1a.451.451,0,0,0-.443.37l-1.8,9.914a.451.451,0,0,0,.443.531h2.7a.451.451,0,0,0,.437-.342l.817-3.264h1.45a3.58,3.58,0,0,0,3.529-3.064l.225-1.54h0A2.3,2.3,0,0,0,22.708,2.144Z" transform="translate(-9.129 -1.365)"/></g></g></svg>