<svg xmlns="http://www.w3.org/2000/svg" xmlns:xlink="http://www.w3.org/1999/xlink" width="14" height="13" viewBox="0 0 14 13"><defs><style>.a,.c{fill:#fefefe;}.a{stroke:#707070;}.b{clip-path:url(#a);}</style><clipPath id="a"><rect class="a" width="14" height="13" transform="translate(-0.174 0.399)"/></clipPath></defs><g class="b" transform="translate(0.174 -0.399)"><g transform="translate(2.263 0.245)"><path class="c" d="M6.126,4.26c-.088-.3-.173-.6-.236-.884a1.42,1.42,0,1,1,2.1-.906,6.938,6.938,0,0,1,.341.977,2.155,2.155,0,1,0-2.2.812Z" transform="translate(-4.416 0)"/><path class="c" d="M4.573,13.223c.532-.575,1.129-.35,1.929-.228.687.106,1.363-.087,1.318-.458a8.6,8.6,0,0,0-.4-1.646c-.182-.618-.527-1.733-.841-2.8C6.16,6.667,6.038,6.006,6.6,5.84c.6-.176.949.681,1.263,1.87.357,1.353.545,1.95.65,1.918.185-.053-.068-.632.417-.774.606-.176.723.3.893.25s.112-.531.6-.672.729.458.93.4.194-.274.493-.36,1.428.416,2.074,2.622c.811,2.774-.1,3.29.174,4.229L10.468,16.7c-.293-.7-1.2-.756-2-1.206S7.108,14.15,5,14.193C4.208,14.209,4.246,13.577,4.573,13.223Z" transform="translate(-4.354 -3.851)"/></g></g></svg>