<svg xmlns="http://www.w3.org/2000/svg" xmlns:xlink="http://www.w3.org/1999/xlink" width="14" height="14" viewBox="0 0 14 14"><defs><style>.a,.c{fill:#c9c9c9;}.a{stroke:#707070;}.b{clip-path:url(#a);}</style><clipPath id="a"><rect class="a" width="14" height="14" transform="translate(-0.033 0.345)"/></clipPath></defs><g class="b" transform="translate(0.033 -0.345)"><g transform="translate(0.52 0.515)"><circle class="c" cx="1.835" cy="1.835" r="1.835" transform="translate(2.063 0)"/><path class="c" d="M17.643,22.67A3.67,3.67,0,1,0,21.313,19,3.67,3.67,0,0,0,17.643,22.67Zm3.4.229a1.16,1.16,0,1,1,0-2.294h.046v-.441a.229.229,0,0,1,.459,0v.441h.046a1.25,1.25,0,0,1,1.33,1.147.229.229,0,1,1-.459,0,.8.8,0,0,0-.872-.688h-.046v1.376h.046a1.16,1.16,0,1,1,0,2.294h-.046v.459a.229.229,0,0,1-.459,0v-.459h-.046a1.25,1.25,0,0,1-1.33-1.147.229.229,0,0,1,.459,0,.8.8,0,0,0,.872.688h.046V22.9Z" transform="translate(-13.056 -13.495)"/><path class="c" d="M8.229,20.429a4.129,4.129,0,0,1,2.49-4.254,3.645,3.645,0,0,0-5.492,0,4.958,4.958,0,0,0-1.15,3.2,9.531,9.531,0,0,0,3.9,1.055c.084,0,.169,0,.254-.005Z" transform="translate(-4.076 -10.799)"/><path class="c" d="M26.025,25.107h-.046a.707.707,0,1,0,0,1.376h.046Z" transform="translate(-17.997 -17.537)"/><path class="c" d="M30.1,31.224a.8.8,0,0,0-.872-.688h-.046v1.376h.046A.8.8,0,0,0,30.1,31.224Z" transform="translate(-20.693 -21.131)"/></g></g></svg>