<svg class="svg-icon" style="width: 1em; height: 1em;vertical-align: middle;fill: currentColor;overflow: hidden;" viewBox="0 0 1024 1024" version="1.1" xmlns="http://www.w3.org/2000/svg"><path d="M1009.777778 355.555556L853.333333 113.777778H170.666667L14.222222 355.555556c0 56.888889 45.511111 99.555556 99.555556 99.555555s99.555556-42.666667 99.555555-99.555555c0 54.044444 45.511111 99.555556 99.555556 99.555555s99.555556-42.666667 99.555555-99.555555c0 54.044444 45.511111 99.555556 99.555556 99.555555s99.555556-42.666667 99.555556-99.555555c0 54.044444 45.511111 99.555556 99.555555 99.555555s99.555556-42.666667 99.555556-99.555555c0 54.044444 45.511111 99.555556 99.555555 99.555555s99.555556-42.666667 99.555556-99.555555zM910.222222 568.888889c-31.288889 0-59.733333-5.688889-85.333333-17.066667V768H199.111111v-216.177778c-25.6 11.377778-54.044444 17.066667-85.333333 17.066667-8.533333 0-19.911111 0-28.444445-2.844445V881.777778h853.333334V566.044444c-8.533333 2.844444-19.911111 2.844444-28.444445 2.844445z" fill="" /></svg>