<svg xmlns="http://www.w3.org/2000/svg" width="15" height="15" viewBox="0 0 15 15"><defs><style>.a{fill:#c1c0c9;}</style></defs><path class="a" d="M6.115,4.529V16.139a.506.506,0,0,1-.5.5h0a.506.506,0,0,1-.5-.5V5.683H4.529A1.153,1.153,0,0,0,3.375,6.837V17.221a1.153,1.153,0,0,0,1.154,1.154H17.261a1.115,1.115,0,0,0,1.114-1.114V4.529a1.153,1.153,0,0,0-1.154-1.154L7.2,3.447A1.034,1.034,0,0,0,6.115,4.529ZM8.5,5.683h3.029a.506.506,0,0,1,.5.5h0a.506.506,0,0,1-.5.5H8.5a.506.506,0,0,1-.5-.5h0A.506.506,0,0,1,8.5,5.683Zm0,5.769h5.337a.506.506,0,0,1,.5.5h0a.506.506,0,0,1-.5.5H8.5a.506.506,0,0,1-.5-.5h0A.506.506,0,0,1,8.5,11.452Zm7.067,3.894H8.5a.506.506,0,0,1-.5-.5h0a.506.506,0,0,1,.5-.5h7.067a.506.506,0,0,1,.5.5h0A.506.506,0,0,1,15.563,15.346Zm0-5.769H8.5a.506.506,0,0,1-.5-.5h0a.506.506,0,0,1,.5-.5h7.067a.506.506,0,0,1,.5.5h0A.506.506,0,0,1,15.563,9.577Z" transform="translate(-3.375 -3.375)"/></svg>