<svg xmlns="http://www.w3.org/2000/svg" width="14.748" height="12.724" viewBox="0 0 14.748 12.724"><defs><style>.a{fill:#3155a5;}</style></defs><path class="a" d="M5.382,7.709l2.936-4.4a.665.665,0,0,1,.556-.282.655.655,0,0,1,.556.288l2.936,4.391h3.211a.672.672,0,0,1,.67.67.565.565,0,0,1-.027.181l-1.7,6.214a1.333,1.333,0,0,1-1.287.979H4.517a1.347,1.347,0,0,1-1.294-.979L1.52,8.561,1.5,8.38a.672.672,0,0,1,.67-.67Zm5.5,0L8.874,4.76,6.863,7.709ZM8.874,13.072a1.341,1.341,0,1,0-1.341-1.341A1.345,1.345,0,0,0,8.874,13.072Z" transform="translate(-1.5 -3.03)"/></svg>