<svg xmlns="http://www.w3.org/2000/svg" width="20.195" height="20.195" viewBox="0 0 20.195 20.195"><defs><style>.a{fill:#4fce5d;}</style></defs><path class="a" d="M12.531,2.25a9.876,9.876,0,0,0-9.914,9.838,9.736,9.736,0,0,0,1.423,5.08L2.25,22.445,7.739,20.7a9.931,9.931,0,0,0,14.706-8.614A9.876,9.876,0,0,0,12.531,2.25Zm4.93,13.574a2.561,2.561,0,0,1-1.754,1.13c-.465.025-.478.36-3.013-.741a10.344,10.344,0,0,1-4.18-3.952,4.862,4.862,0,0,1-.935-2.635,2.809,2.809,0,0,1,.965-2.061.971.971,0,0,1,.687-.289c.2,0,.329-.006.477,0s.369-.031.561.48.651,1.765.71,1.893a.459.459,0,0,1,0,.44,1.722,1.722,0,0,1-.269.409c-.132.142-.278.317-.4.426s-.269.251-.131.508a7.587,7.587,0,0,0,1.342,1.791,6.917,6.917,0,0,0,1.988,1.322c.249.135.4.12.551-.042s.66-.71.838-.954.345-.2.574-.1,1.45.746,1.7.881.414.2.474.311A2.082,2.082,0,0,1,17.461,15.824Z" transform="translate(-2.25 -2.25)"/></svg>