<svg xmlns="http://www.w3.org/2000/svg" xmlns:xlink="http://www.w3.org/1999/xlink" width="15" height="13" viewBox="0 0 15 13"><defs><style>.a,.c{fill:#c9c9c9;}.a{stroke:#d2d2d2;}.b{clip-path:url(#a);}</style><clipPath id="a"><rect class="a" width="15" height="13" transform="translate(-0.466 0.345)"/></clipPath></defs><g class="b" transform="translate(0.466 -0.345)"><g transform="translate(0.546 0.177)"><path class="c" d="M12.711,7.917a3.211,3.211,0,1,0,3.211,3.211A3.215,3.215,0,0,0,12.711,7.917Zm-.067,2.81h.134a1,1,0,0,1,.335,1.946v.2a.4.4,0,1,1-.8,0v-.134h-.268a.4.4,0,1,1,0-.8h.736a.2.2,0,0,0,0-.4h-.134a1,1,0,0,1-.335-1.946v-.2a.4.4,0,1,1,.8,0v.134h.268a.4.4,0,0,1,0,.8h-.736a.2.2,0,1,0,0,.4Z" transform="translate(-6.289 -5.24)"/><path class="c" d="M23.2,16.264a.4.4,0,0,0-.4.4,5.1,5.1,0,0,1-3.909,4.951v-.5a.4.4,0,0,0-.685-.284l-1.047,1.047a.4.4,0,0,0,0,.568L18.2,23.494a.4.4,0,0,0,.685-.284v-.766A5.909,5.909,0,0,0,23.6,16.665a.4.4,0,0,0-.4-.4Z" transform="translate(-11.279 -10.766)"/><path class="c" d="M4.724,14.906A5.082,5.082,0,0,1,1.644,8.344l.481.277a.4.4,0,0,0,.589-.452L2.308,6.653a.4.4,0,0,0-.492-.284L.3,6.776a.4.4,0,0,0-.1.735l.738.426a5.89,5.89,0,0,0,3.519,7.727.4.4,0,1,0,.265-.758Z" transform="translate(-0.001 -4.207)"/><path class="c" d="M17.488,2.632l-.863.231A5.942,5.942,0,0,0,11.57,0,5.76,5.76,0,0,0,7.925,1.277a.4.4,0,0,0,.5.626A4.962,4.962,0,0,1,11.57.8a5.13,5.13,0,0,1,4.24,2.278l-.468.125a.4.4,0,0,0-.1.735l1.36.786a.4.4,0,0,0,.548-.147l.786-1.36a.4.4,0,0,0-.452-.588Z" transform="translate(-5.147)"/></g></g></svg>