<svg id="Icon_ionic-ios-stats" data-name="Icon ionic-ios-stats" xmlns="http://www.w3.org/2000/svg" width="20" height="22.5" viewBox="0 0 20 22.5">
  <path id="Path_1388" data-name="Path 1388" d="M12.938,26.318h3.375a.519.519,0,0,0,.563-.455V4.955a.519.519,0,0,0-.562-.455H12.938a.519.519,0,0,0-.562.455V25.864A.519.519,0,0,0,12.938,26.318Z" transform="translate(-7.208 -4.159)" fill="#3155a5"/>
  <path id="Path_1389" data-name="Path 1389" d="M6.188,31.5H9.563a.564.564,0,0,0,.563-.562V20.813a.564.564,0,0,0-.562-.562H6.188a.564.564,0,0,0-.562.563V30.938A.564.564,0,0,0,6.188,31.5Z" transform="translate(-5.625 -9.341)" fill="#e0c641"/>
  <path id="Path_1390" data-name="Path 1390" d="M19.695,31.5h3.361a.567.567,0,0,0,.57-.57V16.32a.567.567,0,0,0-.57-.57H19.695a.567.567,0,0,0-.57.57V30.93A.567.567,0,0,0,19.695,31.5Z" transform="translate(-8.792 -9.341)" fill="#e0c641"/>
  <path id="Path_1391" data-name="Path 1391" d="M25.875,9.57V30.93a.567.567,0,0,0,.57.57h3.361a.567.567,0,0,0,.57-.57V9.57a.567.567,0,0,0-.57-.57H26.445A.567.567,0,0,0,25.875,9.57Z" transform="translate(-10.375 -9)" fill="#3155a5"/>
</svg>
