<svg xmlns="http://www.w3.org/2000/svg" xmlns:xlink="http://www.w3.org/1999/xlink" width="16" height="15" viewBox="0 0 16 15">
  <defs>
    <clipPath id="clip-path">
      <rect id="Rectangle_1918" data-name="Rectangle 1918" width="15" height="16" transform="translate(0 0)" fill="#3155a5" stroke="#707070" stroke-width="1"/>
    </clipPath>
  </defs>
  <g id="Mask_Group_57" data-name="Mask Group 57" transform="translate(16) rotate(90)" clip-path="url(#clip-path)">
    <g id="exchange" transform="translate(0.094 0.41)">
      <path id="XMLID_17_" d="M.687,4.81H12.771L10.508,7.073a.687.687,0,0,0,.972.972l3.436-3.436a.687.687,0,0,0,0-.972L11.48.2a.687.687,0,1,0-.972.972l2.263,2.263H.687a.687.687,0,1,0,0,1.374Z" transform="translate(0 6.871)" fill="#3155a5"/>
      <path id="XMLID_18_" d="M3.637,8.044a.687.687,0,0,0,.972-.972L2.346,4.81H14.43a.687.687,0,1,0,0-1.374H2.346L4.609,1.173A.687.687,0,1,0,3.637.2L.2,3.637a.687.687,0,0,0,0,.972Z" transform="translate(0)" fill="#3155a5"/>
    </g>
  </g>
</svg>
