<svg xmlns="http://www.w3.org/2000/svg" xmlns:xlink="http://www.w3.org/1999/xlink" width="32" height="32" viewBox="0 0 32 32"><defs><style>.a,.c{fill:#3155a5;}.a{stroke:#707070;}.b{clip-path:url(#a);}</style><clipPath id="a"><rect class="a" width="32" height="32" transform="translate(0.244 -0.001)"/></clipPath></defs><g class="b" transform="translate(-0.244 0.001)"><g transform="translate(1.545 0.029)"><g transform="translate(0 0)"><path class="c" d="M30.772,12.382a.677.677,0,0,0,.671-.671V5.429a.732.732,0,0,0-.732-.671h-2.5V2.623a2.623,2.623,0,1,0-5.246,0V4.758H11.192V2.623a2.623,2.623,0,0,0-5.246,0V4.758H3.507a.677.677,0,0,0-.671.671v6.283a.677.677,0,0,0,.671.671H6.251v2.257H3.507a.677.677,0,0,0-.671.671v6.283a.677.677,0,0,0,.671.671H6.251v8.662H5.336a.671.671,0,1,0,0,1.342H8.569a.671.671,0,1,0,0-1.342H7.654V22.264h18.6v8.662h-.915a.671.671,0,0,0,0,1.342h3.233a.671.671,0,0,0,0-1.342h-.915V22.264h3.111a.677.677,0,0,0,.671-.671V15.31a.677.677,0,0,0-.671-.671H27.661V12.382h3.111Zm-2.2-6.222L24.49,11.04H22.172l4.087-4.88Zm-2.318,6.222v2.257H7.654V12.382Zm-1.83-9.76a1.22,1.22,0,0,1,2.44,0V4.758h-2.44Zm0,3.477-4.087,4.88H18.024L22.111,6.1Zm-4.148,0-4.087,4.88H13.876L17.963,6.1Zm-4.148,0-4.087,4.88H9.789L13.815,6.1ZM7.349,2.623a1.22,1.22,0,1,1,2.44,0V4.758H7.349ZM4.177,6.1H7.9L4.177,10.553V6.1Zm1.464,4.88L9.728,6.1h2.318l-4.087,4.88Zm-1.464,5H7.9L4.177,20.434Zm1.464,4.941,4.087-4.88h2.318l-4.087,4.88Zm4.148,0,4.087-4.88h2.318l-4.087,4.88Zm4.148,0,4.087-4.88h2.318l-4.087,4.88Zm4.148,0,4.087-4.88h2.257L20.4,20.922Zm11.955,0H26.319l3.721-4.453Zm-1.464-4.941-4.087,4.88H22.172l4.087-4.88ZM26.319,11.04,30.04,6.588V11.04Z" transform="translate(-2.836 0)"/></g></g></g></svg>