<svg xmlns="http://www.w3.org/2000/svg" width="14.748" height="10.324" viewBox="0 0 14.748 10.324"><defs><style>.a{fill:#3155a5;}</style></defs><path class="a" d="M14.748,11.836a.738.738,0,0,1-.737.737H.737A.738.738,0,0,1,0,11.836V4.462H14.748ZM4.425,7.043a.369.369,0,0,0-.369-.369H1.844a.369.369,0,0,0-.369.369v.737a.369.369,0,0,0,.369.369H4.056a.369.369,0,0,0,.369-.369Zm0,2.765a.184.184,0,0,0-.184-.184H1.659a.184.184,0,0,0-.184.184v.369a.184.184,0,0,0,.184.184H4.24a.184.184,0,0,0,.184-.184ZM13.274,7.6a.184.184,0,0,0-.184-.184H6.084A.184.184,0,0,0,5.9,7.6v.369a.184.184,0,0,0,.184.184h7.005a.184.184,0,0,0,.184-.184Zm0,2.212a.184.184,0,0,0-.184-.184H9.033a.184.184,0,0,0-.184.184v.369a.184.184,0,0,0,.184.184h4.056a.184.184,0,0,0,.184-.184ZM.369,2.25H14.38a.369.369,0,0,1,.369.369V3.725H0V2.619A.369.369,0,0,1,.369,2.25Z" transform="translate(0 -2.25)"/></svg>