<svg xmlns="http://www.w3.org/2000/svg" xmlns:xlink="http://www.w3.org/1999/xlink" width="20" height="20" viewBox="0 0 20 20"><defs><style>.a,.c{fill:#3155a5;}.a{stroke:#707070;}.b{clip-path:url(#a);}</style><clipPath id="a"><rect class="a" width="20" height="20"/></clipPath></defs><g class="b"><g transform="translate(0 0.833)"><path class="c" d="M2.292,18.333H17.708A2.293,2.293,0,0,0,20,16.042V2.292A2.294,2.294,0,0,0,17.708,0H2.292A2.294,2.294,0,0,0,0,2.292v13.75A2.293,2.293,0,0,0,2.292,18.333ZM17.708,1.25A1.043,1.043,0,0,1,18.75,2.292v13.75a1.043,1.043,0,0,1-1.042,1.042H2.292A1.043,1.043,0,0,1,1.25,16.042V2.292A1.043,1.043,0,0,1,2.292,1.25Zm0,0" transform="translate(0 0)"/><path class="c" d="M.625,6.25h18.75a.625.625,0,0,0,0-1.25H.625a.625.625,0,0,0,0,1.25Zm0,0" transform="translate(0 0)"/><path class="c" d="M.625,10.417h18.75a.625.625,0,0,0,0-1.25H.625a.625.625,0,1,0,0,1.25Zm0,0" transform="translate(0 0)"/><path class="c" d="M.625,14.583h18.75a.625.625,0,0,0,0-1.25H.625a.625.625,0,0,0,0,1.25Zm0,0" transform="translate(0 0)"/><path class="c" d="M5.208,18.333a.625.625,0,0,0,.625-.625V5.625a.625.625,0,0,0-1.25,0V17.708A.625.625,0,0,0,5.208,18.333Zm0,0" transform="translate(9.583 0)"/><path class="c" d="M10,18.333a.625.625,0,0,0,.625-.625V5.625a.625.625,0,0,0-1.25,0V17.708A.625.625,0,0,0,10,18.333Zm0,0" transform="translate(0 0)"/><path class="c" d="M14.792,18.333a.625.625,0,0,0,.625-.625V5.625a.625.625,0,0,0-1.25,0V17.708A.625.625,0,0,0,14.792,18.333Zm0,0" transform="translate(-9.583 0)"/></g></g></svg>