<svg xmlns="http://www.w3.org/2000/svg" width="15" height="11.664" viewBox="0 0 15 11.664"><defs><style>.a{fill:#c1c0c9;}</style></defs><path class="a" d="M7.3,5.28,2.5,9.234V13.5a.417.417,0,0,0,.417.417l2.918-.008a.417.417,0,0,0,.415-.417V11a.417.417,0,0,1,.417-.417H8.331A.417.417,0,0,1,8.748,11v2.49a.417.417,0,0,0,.417.418l2.917.008A.417.417,0,0,0,12.5,13.5V9.231L7.7,5.28A.317.317,0,0,0,7.3,5.28Zm7.584,2.688L12.707,6.173V2.566a.312.312,0,0,0-.312-.312H10.936a.312.312,0,0,0-.312.312V4.457L8.292,2.539a1.25,1.25,0,0,0-1.588,0L.112,7.967a.312.312,0,0,0-.042.44l.664.807a.312.312,0,0,0,.44.042L7.3,4.212a.317.317,0,0,1,.4,0l6.125,5.045a.312.312,0,0,0,.44-.042l.664-.807a.312.312,0,0,0-.044-.441Z" transform="translate(0.001 -2.254)"/></svg>