<svg xmlns="http://www.w3.org/2000/svg" xmlns:xlink="http://www.w3.org/1999/xlink" width="20" height="20" viewBox="0 0 20 20"><defs><style>.a,.c{fill:#fefefe;}.a{stroke:#707070;}.b{clip-path:url(#a);}</style><clipPath id="a"><rect class="a" width="20" height="20"/></clipPath></defs><g class="b"><g transform="translate(0 0.04)"><g transform="translate(0 0)"><path class="c" d="M3.038,39.083a.4.4,0,0,0,0,.8h7.643a.4.4,0,0,0,0-.8h-.239v-3.7h.239a.4.4,0,0,0,.4-.4v-.6a.4.4,0,0,0-.177-.331L7.08,31.507a.4.4,0,0,0-.442,0L2.817,34.054a.4.4,0,0,0-.177.331v.6a.4.4,0,0,0,.4.4h.239v3.7Zm2.309-3.662H8.372v3.662H5.347Zm3.821,3.662V35.421h.478v3.662ZM6.859,32.317l3.4,2.268h-6.8Zm-2.786,3.1h.478v3.662H4.073Z" transform="translate(-2.003 -21.33)"/><path class="c" d="M10.034,58.32H1.118a.4.4,0,1,0,0,.8h8.916a.4.4,0,1,0,0-.8Z" transform="translate(-0.72 -39.293)"/><path class="c" d="M33.758,8.6a.4.4,0,1,0,0,.8H41.4a.4.4,0,1,0,0-.8h-.239V4.9H41.4a.4.4,0,0,0,.4-.4v-.6a.4.4,0,0,0-.177-.331L37.8,1.027a.4.4,0,0,0-.442,0L33.537,3.574a.4.4,0,0,0-.177.331v.6a.4.4,0,0,0,.4.4H34V8.6Zm2.309-3.662h3.025V8.6H36.067ZM39.888,8.6V4.941h.478V8.6ZM37.579,1.837l3.4,2.268h-6.8Zm-2.786,3.1h.478V8.6h-.478Z" transform="translate(-22.533 -0.96)"/><path class="c" d="M40.754,27.84H31.838a.4.4,0,0,0,0,.8h8.916a.4.4,0,1,0,0-.8Z" transform="translate(-21.25 -18.924)"/><path class="c" d="M38.642,34.68a.4.4,0,0,0-.483.289,6.583,6.583,0,0,1-4.734,4.782l.487-.911a.4.4,0,0,0-.7-.376l-.9,1.685a.4.4,0,0,0,.171.543l1.7.866a.4.4,0,1,0,.361-.71l-.74-.376a7.4,7.4,0,0,0,5.127-5.309A.4.4,0,0,0,38.642,34.68Z" transform="translate(-21.799 -23.486)"/><path class="c" d="M9.338,12.792a.4.4,0,0,0,.483-.289A6.583,6.583,0,0,1,14.555,7.72l-.487.911a.4.4,0,1,0,.7.376l.9-1.685A.4.4,0,0,0,15.5,6.78l-1.7-.866a.4.4,0,0,0-.361.71l.74.376a7.4,7.4,0,0,0-5.127,5.309.4.4,0,0,0,.289.483Z" transform="translate(-6.278 -4.242)"/></g></g></g></svg>