<svg xmlns="http://www.w3.org/2000/svg" xmlns:xlink="http://www.w3.org/1999/xlink" width="20" height="20" viewBox="0 0 20 20"><defs><style>.a,.c{fill:#f5f5f5;}.a{stroke:#707070;}.b{clip-path:url(#a);}</style><clipPath id="a"><rect class="a" width="20" height="20"/></clipPath></defs><g class="b"><g transform="translate(0 1.823)"><g transform="translate(0 0)"><path class="c" d="M18.586,10.415H16.708l-.527-3.976a.986.986,0,0,0-1.1-.84L.85,7.485A.979.979,0,0,0,.2,7.862a.969.969,0,0,0-.192.723l1.2,9.056a.977.977,0,0,0,1.1.843l.943-.124v2.17a.979.979,0,0,0,.979.979H18.586a.979.979,0,0,0,.979-.979V11.394A.979.979,0,0,0,18.586,10.415Zm-2.536,0H13.5l2.5-.332ZM.655,8.5A.32.32,0,0,1,.72,8.259a.326.326,0,0,1,.217-.127L15.165,6.246a.331.331,0,0,1,.369.281l.129.972L.784,9.471ZM3.25,17.7l-1.027.135a.326.326,0,0,1-.366-.28h0l-.728-5.5,2.121-.28Zm.043-6.59-2.251.3L.87,10.119,15.749,8.145l.1.748.072.543-7.384.979H4.229A.979.979,0,0,0,3.293,11.113Zm15.619,9.418a.326.326,0,0,1-.326.326H4.229a.326.326,0,0,1-.326-.326V11.4s0-.007,0-.01a.326.326,0,0,1,.326-.326H18.586a.326.326,0,0,1,.326.326Z" transform="translate(0 -5.591)"/><path class="c" d="M38.561,29.334a1.632,1.632,0,0,0,.344-.344,1.632,1.632,0,1,0,0-1.938,1.632,1.632,0,1,0-.344,2.282Zm1.649-2.292a.979.979,0,1,1-.979.979A.979.979,0,0,1,40.21,27.043Zm-2.61,0a.979.979,0,1,1-.979.979A.979.979,0,0,1,37.6,27.043Z" transform="translate(-24.234 -19.608)"/><rect class="c" width="0.653" height="0.653" transform="translate(5.208 7.109)"/><rect class="c" width="3.916" height="0.653" transform="translate(6.513 7.109)"/><rect class="c" width="5.221" height="0.653" transform="translate(5.208 8.414)"/><path class="c" d="M28.044,40.4H16.3a.326.326,0,0,0-.326.326v1.958a.326.326,0,0,0,.326.326H28.044a.326.326,0,0,0,.326-.326V40.726A.326.326,0,0,0,28.044,40.4Zm-.326,1.958H16.623V41.052H27.717Z" transform="translate(-10.763 -29.049)"/></g></g></g></svg>