<svg xmlns="http://www.w3.org/2000/svg" width="154.382" height="97.395" viewBox="0 0 154.382 97.395">
  <g id="undraw_server_down_s4lk_1_" data-name="undraw_server_down_s4lk (1)" transform="translate(-1.618)">
    <circle id="Ellipse_68" data-name="Ellipse 68" cx="29.678" cy="29.678" r="29.678" transform="translate(11.092)" fill="#f2f2f2"/>
    <path id="Path_1491" data-name="Path 1491" d="M16.333,40.8a7.873,7.873,0,0,0,2.8-.527c.647-.461,3.3-1.011,3.465-.272s3.228,3.677.8,3.7-5.635-.378-6.281-.771S16.333,40.8,16.333,40.8Z" transform="translate(-4.374 -14.003)" fill="#a8a8a8"/>
    <path id="Path_1492" data-name="Path 1492" d="M23.439,43.442c-2.425.02-5.635-.378-6.281-.771-.492-.3-.688-1.375-.754-1.871l-.072,0s.136,1.732.782,2.126,3.856.791,6.281.771c.7-.006.942-.255.929-.624C24.227,43.3,23.96,43.438,23.439,43.442Z" transform="translate(-4.374 -14.003)" opacity="0.2"/>
    <ellipse id="Ellipse_69" data-name="Ellipse 69" cx="26.056" cy="3.545" rx="26.056" ry="3.545" transform="translate(1.618 55.603)" fill="#3f3d56"/>
    <ellipse id="Ellipse_70" data-name="Ellipse 70" cx="21.875" cy="2.976" rx="21.875" ry="2.976" transform="translate(5.798 56.171)" opacity="0.1"/>
    <ellipse id="Ellipse_71" data-name="Ellipse 71" cx="39.432" cy="5.364" rx="39.432" ry="5.364" transform="translate(77.137 86.666)" fill="#3f3d56"/>
    <ellipse id="Ellipse_72" data-name="Ellipse 72" cx="23.687" cy="3.222" rx="23.687" ry="3.222" transform="translate(19.592 86.718)" fill="#3f3d56"/>
    <path id="Path_1493" data-name="Path 1493" d="M68.831,101.226c12.54,3.2,36.645-4.18,39.292-12.54" transform="translate(-4.374 -14.003)" fill="none" stroke="#2f2e41" stroke-miterlimit="10" stroke-width="0.279"/>
    <path id="Path_1494" data-name="Path 1494" d="M47.513,50.091s18.113-5.016,19.228,11.147S51.832,82,64.372,85.2" transform="translate(-4.374 -14.003)" fill="none" stroke="#2f2e41" stroke-miterlimit="10" stroke-width="0.279"/>
    <path id="Path_1495" data-name="Path 1495" d="M30.013,88.865s5.444-1.508,5.779,3.35-4.481,6.24-.712,7.2" transform="translate(-4.374 -14.003)" fill="none" stroke="#2f2e41" stroke-miterlimit="10" stroke-width="0.279"/>
    <path id="Path_1496" data-name="Path 1496" d="M112.874,92.482l-1.1,7.008s-5.4,2.871-1.6,2.955,21.7,0,21.7,0,3.462,0-2.026-3.04l-1.1-7.346Z" transform="translate(-4.374 -14.003)" fill="#2f2e41"/>
    <path id="Path_1497" data-name="Path 1497" d="M109.408,102.369a14.945,14.945,0,0,1,2.369-1.568l1.1-7.008,15.873.015,1.1,6.908a14.413,14.413,0,0,1,2.536,1.669c.7-.161,1.475-.758-2.536-2.98l-1.1-7.346-15.873.422-1.1,7.008S107.236,101.9,109.408,102.369Z" transform="translate(-4.374 -14.003)" opacity="0.1"/>
    <rect id="Rectangle_2044" data-name="Rectangle 2044" width="71.514" height="49.815" rx="2.514" transform="translate(80.596 29.635)" fill="#2f2e41"/>
    <rect id="Rectangle_2045" data-name="Rectangle 2045" width="66.701" height="37.319" transform="translate(83.002 32.294)" fill="#3f3d56"/>
    <circle id="Ellipse_73" data-name="Ellipse 73" cx="0.422" cy="0.422" r="0.422" transform="translate(115.93 30.69)" fill="#f2f2f2"/>
    <path id="Path_1498" data-name="Path 1498" d="M156.484,86.572v4.367a2.514,2.514,0,0,1-2.515,2.514H87.484a2.514,2.514,0,0,1-2.514-2.515V86.572Z" transform="translate(-4.374 -14.003)" fill="#2f2e41"/>
    <path id="Path_1499" data-name="Path 1499" d="M135.012,93v.844H89.588V93.17L89.65,93l1.12-3.04h43.313Z" fill="#2f2e41"/>
    <path id="Path_1500" data-name="Path 1500" d="M156.867,106.178c-.083.354-.4.727-1.1,1.08-2.533,1.266-7.683-.338-7.683-.338s-3.968-.675-3.968-2.449a3.166,3.166,0,0,1,.348-.207c1.065-.563,4.6-1.954,10.857.059a2.611,2.611,0,0,1,1.19.78A1.245,1.245,0,0,1,156.867,106.178Z" transform="translate(-4.374 -14.003)" fill="#2f2e41"/>
    <path id="Path_1501" data-name="Path 1501" d="M156.867,106.178c-3.1,1.188-5.864,1.277-8.7-.693a6.228,6.228,0,0,0-3.7-1.22c1.065-.563,4.6-1.954,10.857.059a2.611,2.611,0,0,1,1.19.78A1.245,1.245,0,0,1,156.867,106.178Z" transform="translate(-4.374 -14.003)" opacity="0.1"/>
    <ellipse id="Ellipse_74" data-name="Ellipse 74" cx="1.098" cy="0.338" rx="1.098" ry="0.338" transform="translate(147.508 90.806)" fill="#f2f2f2"/>
    <circle id="Ellipse_75" data-name="Ellipse 75" cx="1.604" cy="1.604" r="1.604" transform="translate(114.748 74.426)" fill="#f2f2f2"/>
    <path id="Path_1502" data-name="Path 1502" d="M135.012,93v.844H89.588V93.17L89.65,93Z" opacity="0.1"/>
    <rect id="Rectangle_2046" data-name="Rectangle 2046" width="28.982" height="33.719" transform="translate(15.133 22.154)" fill="#2f2e41"/>
    <rect id="Rectangle_2047" data-name="Rectangle 2047" width="34.834" height="11.983" transform="translate(12.207 18.81)" fill="#3f3d56"/>
    <rect id="Rectangle_2048" data-name="Rectangle 2048" width="34.834" height="11.983" transform="translate(12.207 33.022)" fill="#3f3d56"/>
    <rect id="Rectangle_2049" data-name="Rectangle 2049" width="34.834" height="11.983" transform="translate(12.207 47.234)" fill="#3f3d56"/>
    <rect id="Rectangle_2050" data-name="Rectangle 2050" width="2.229" height="2.229" transform="translate(37.844 20.9)" fill="#3155a5" opacity="0.4"/>
    <rect id="Rectangle_2051" data-name="Rectangle 2051" width="2.229" height="2.229" transform="translate(41.049 20.9)" fill="#3155a5" opacity="0.8"/>
    <rect id="Rectangle_2052" data-name="Rectangle 2052" width="2.229" height="2.229" transform="translate(44.254 20.9)" fill="#3155a5"/>
    <rect id="Rectangle_2053" data-name="Rectangle 2053" width="2.229" height="2.229" transform="translate(37.844 34.973)" fill="#3155a5" opacity="0.4"/>
    <rect id="Rectangle_2054" data-name="Rectangle 2054" width="2.229" height="2.229" transform="translate(41.049 34.973)" fill="#3155a5" opacity="0.8"/>
    <rect id="Rectangle_2055" data-name="Rectangle 2055" width="2.229" height="2.229" transform="translate(44.254 34.973)" fill="#3155a5"/>
    <rect id="Rectangle_2056" data-name="Rectangle 2056" width="2.229" height="2.229" transform="translate(37.844 49.046)" fill="#3155a5" opacity="0.4"/>
    <rect id="Rectangle_2057" data-name="Rectangle 2057" width="2.229" height="2.229" transform="translate(41.049 49.046)" fill="#3155a5" opacity="0.8"/>
    <rect id="Rectangle_2058" data-name="Rectangle 2058" width="2.229" height="2.229" transform="translate(44.254 49.046)" fill="#3155a5"/>
    <circle id="Ellipse_76" data-name="Ellipse 76" cx="11.007" cy="11.007" r="11.007" transform="translate(33.107 63.954)" fill="#2f2e41"/>
    <rect id="Rectangle_2059" data-name="Rectangle 2059" width="3.344" height="5.991" transform="translate(39.098 83.601)" fill="#2f2e41"/>
    <rect id="Rectangle_2060" data-name="Rectangle 2060" width="3.344" height="5.991" transform="translate(45.787 83.601)" fill="#2f2e41"/>
    <ellipse id="Ellipse_77" data-name="Ellipse 77" cx="2.787" cy="1.045" rx="2.787" ry="1.045" transform="translate(39.098 88.617)" fill="#2f2e41"/>
    <ellipse id="Ellipse_78" data-name="Ellipse 78" cx="2.787" cy="1.045" rx="2.787" ry="1.045" transform="translate(45.787 88.477)" fill="#2f2e41"/>
    <circle id="Ellipse_79" data-name="Ellipse 79" cx="3.762" cy="3.762" r="3.762" transform="translate(40.631 68.413)" fill="#fff"/>
    <circle id="Ellipse_80" data-name="Ellipse 80" cx="1.254" cy="1.254" r="1.254" transform="translate(43.139 70.921)" fill="#3f3d56"/>
    <path id="Path_1503" data-name="Path 1503" d="M37.811,78.728c-.889-3.98,1.952-8,6.346-8.984s8.676,1.45,9.564,5.431S51.7,80.624,47.3,81.605,38.7,82.709,37.811,78.728Z" transform="translate(-4.374 -14.003)" fill="#3155a5"/>
    <ellipse id="Ellipse_81" data-name="Ellipse 81" cx="5.504" cy="1.728" rx="5.504" ry="1.728" transform="translate(48.019 71.755) rotate(-23.171)" fill="#2f2e41"/>
    <ellipse id="Ellipse_82" data-name="Ellipse 82" cx="5.504" cy="1.728" rx="5.504" ry="1.728" transform="translate(27.397 79.14) rotate(-23.171)" fill="#2f2e41"/>
    <path id="Path_1504" data-name="Path 1504" d="M54.9,92.17c0,1.077-2.774,3.2-5.852,3.2s-5.991-1.988-5.991-3.065,2.913-.836,5.991-.836S54.9,91.092,54.9,92.17Z" transform="translate(-4.374 -14.003)" fill="#fff"/>
  </g>
</svg>
