<svg xmlns="http://www.w3.org/2000/svg" xmlns:xlink="http://www.w3.org/1999/xlink" width="32" height="32" viewBox="0 0 32 32"><defs><style>.a,.c{fill:#3155a5;}.a{stroke:#707070;}.b{clip-path:url(#a);}</style><clipPath id="a"><rect class="a" width="32" height="32"/></clipPath></defs><g class="b"><g transform="translate(0 8.07)"><path class="c" d="M41.811,25.863a.469.469,0,0,0-.528.4,7,7,0,0,1-9.6,5.508l-.045-.016a8.715,8.715,0,0,1-2.5-1.5.469.469,0,0,0-.584.735,9.631,9.631,0,0,0,2.787,1.653,7.933,7.933,0,0,0,10.868-6.256.469.469,0,0,0-.4-.529Z" transform="translate(-10.217 -17.379)"/><path class="c" d="M20.3,23.788a5.842,5.842,0,0,0,3.872,1.8h0a5.044,5.044,0,0,0,0-10.089h0a5.7,5.7,0,0,0-4.15,2.084c-1.353,1.42-4.421,5.06-4.532,5.2C12.546,26.5,10.8,26.951,10.7,26.973a.355.355,0,0,0-.1.029,6.947,6.947,0,0,1-2.378.522l-.3.006A6.991,6.991,0,0,1,7.93,13.548H8a6.956,6.956,0,0,1,2.518.494l.149.058a12.352,12.352,0,0,1,4.822,4.038s-1.042,1.272-1.282,1.558c-.473-.515-1.363-1.45-2.436-2.407a5.842,5.842,0,0,0-3.872-1.8h0c-.167,0-.336.008-.5.025a.469.469,0,1,0,.093.934c.135-.013.273-.02.41-.02h0c.742,0,1.708.186,3.247,1.558,1.094.975,2.011,1.948,2.446,2.425-.687.791-1.423,1.6-2.223,2.436A4.713,4.713,0,0,1,7.9,24.645,4.106,4.106,0,0,1,5.624,17.12a.469.469,0,0,0-.521-.781,5.045,5.045,0,0,0,2.8,9.244,5.694,5.694,0,0,0,4.15-2.084c1.353-1.42,4.616-5.306,4.616-5.306l.006-.007c2.888-3.62,4.6-4.059,4.695-4.081a.354.354,0,0,0,.1-.029,6.948,6.948,0,0,1,2.378-.522l.3-.006a6.993,6.993,0,0,1,6.9,5.9.469.469,0,1,0,.927-.145,7.932,7.932,0,0,0-7.834-6.693h-.01l-.307.006h-.01a7.884,7.884,0,0,0-2.661.575c-.393.087-2.176.663-5.052,4.207A12.983,12.983,0,0,0,11,13.221l-.13-.05a7.931,7.931,0,1,0-2.936,15.3h.01l.307-.006h.01a7.884,7.884,0,0,0,2.661-.575c.388-.086,2.128-.647,4.935-4.064.268.306.54.6.813.88a.469.469,0,1,0,.671-.656c-.3-.3-.591-.625-.882-.962.246-.3,1.166-1.418,1.407-1.7.472.515,1.363,1.45,2.436,2.407Zm.4-5.562a4.712,4.712,0,0,1,3.47-1.793,4.106,4.106,0,0,1,0,8.211h0c-.742,0-1.708-.186-3.247-1.558-1.094-.976-2.011-1.949-2.446-2.425.687-.791,1.424-1.6,2.223-2.436Z" transform="translate(0 -12.609)"/></g></g></svg>