<svg xmlns="http://www.w3.org/2000/svg" xmlns:xlink="http://www.w3.org/1999/xlink" width="27" height="27" viewBox="0 0 27 27"><defs><style>.a,.c{fill:#3155a5;}.a{stroke:#707070;}.b{clip-path:url(#a);}</style><clipPath id="a"><rect class="a" width="27" height="27" transform="translate(0.132 0.025)"/></clipPath></defs><g class="b" transform="translate(-0.132 -0.025)"><g transform="translate(1.133)"><path class="c" d="M26.917,18.835a5.553,5.553,0,0,1-3.786-1.466.567.567,0,0,1,.771-.832A4.422,4.422,0,0,0,26.917,17.7a4.534,4.534,0,1,0-4.534-4.534,4.634,4.634,0,0,0,.18,1.292.566.566,0,0,1-1.087.319,5.671,5.671,0,1,1,5.441,4.057Z" transform="translate(-11.615 -4.1)"/><path class="c" d="M25.616,17.112a.566.566,0,0,1-.4-.967l3.212-3.212V8.067a.567.567,0,1,1,1.133,0v5.1a.571.571,0,0,1-.165.4l-3.378,3.378A.568.568,0,0,1,25.616,17.112Z" transform="translate(-13.692 -4.1)"/><path class="c" d="M11.467,34.528a.566.566,0,0,1-.434-.929l1.211-1.453a3.309,3.309,0,0,0,.417-3.6.564.564,0,0,1,.107-.654l2.066-2.066a2.124,2.124,0,0,0,0-3L8.451,28.711a.566.566,0,0,1-.768-.832L14.065,22a1.131,1.131,0,0,1,1.57.031,3.26,3.26,0,0,1,0,4.6l-1.792,1.792a4.444,4.444,0,0,1-.73,4.451L11.9,34.324a.568.568,0,0,1-.435.2Z" transform="translate(-4.1 -11.859)"/><path class="c" d="M10.768,38.476H.567A.567.567,0,0,1,0,37.91V29.3a8.547,8.547,0,0,1,3.366-6.775l2.355-1.786a.566.566,0,1,1,.683.9L4.05,23.428A7.409,7.409,0,0,0,1.133,29.3v8.043H10.2v-1.7a.567.567,0,0,1,.567-.567,2.269,2.269,0,0,0,2.267-2.267v-.57a.567.567,0,1,1,1.133,0v.57a3.406,3.406,0,0,1-2.834,3.353V37.91A.567.567,0,0,1,10.768,38.476Z" transform="translate(0 -11.273)"/><path class="c" d="M30.069,21.536H15.334a.567.567,0,1,1,0-1.133H30.069a.568.568,0,0,0,.567-.567V1.7a.568.568,0,0,0-.567-.567H14.2a.568.568,0,0,0-.567.567V14.345a.567.567,0,0,1-1.133,0V1.7A1.7,1.7,0,0,1,14.2,0H30.069a1.7,1.7,0,0,1,1.7,1.7V19.836A1.7,1.7,0,0,1,30.069,21.536Z" transform="translate(-6.833)"/></g></g></svg>