<svg xmlns="http://www.w3.org/2000/svg" width="25.717" height="25.717" viewBox="0 0 25.717 25.717"><defs><style>.a{fill:#3155a5;}</style></defs><path class="a" d="M12.859.563A12.859,12.859,0,1,1,0,13.421,12.857,12.857,0,0,1,12.859.563Zm0,4.978A4.563,4.563,0,1,0,17.421,10.1,4.563,4.563,0,0,0,12.859,5.54Zm0,17.836a9.936,9.936,0,0,0,7.6-3.536,5.781,5.781,0,0,0-5.107-3.1,1.269,1.269,0,0,0-.368.057,6.865,6.865,0,0,1-2.121.358,6.839,6.839,0,0,1-2.121-.358,1.269,1.269,0,0,0-.368-.057,5.781,5.781,0,0,0-5.107,3.1A9.936,9.936,0,0,0,12.859,23.376Z" transform="translate(0 -0.563)"/></svg>