<svg xmlns="http://www.w3.org/2000/svg" xmlns:xlink="http://www.w3.org/1999/xlink" width="27" height="27" viewBox="0 0 27 27"><defs><style>.a,.c{fill:#3155a5;}.a{stroke:#707070;}.b{clip-path:url(#a);}</style><clipPath id="a"><rect class="a" width="27" height="27"/></clipPath></defs><g class="b"><g transform="translate(-0.288 1.918)"><path class="c" d="M35.925,34.867h-.472V15.929a1.464,1.464,0,0,0-2.928,0v.465H15.05v-.465a1.464,1.464,0,0,0-2.928,0V34.867h-.486a1.457,1.457,0,1,0,0,2.915H35.925a1.457,1.457,0,1,0,0-2.915ZM33.5,15.929a.493.493,0,0,1,.986,0V34.867H33.5Zm-6.8,14.081a1.459,1.459,0,0,0-1.457,1.457h-.486a1.457,1.457,0,1,0-2.915,0h-.486a1.457,1.457,0,0,0-2.915,0H15.05V27.58h1.443a1.457,1.457,0,0,0,2.915,0h5.829a1.457,1.457,0,0,0,2.915,0h.486a1.457,1.457,0,1,0,2.915,0h.972v3.886H28.152A1.459,1.459,0,0,0,26.695,30.009Zm.486,1.457v.972a.486.486,0,0,1-.972,0v-.972a.486.486,0,1,1,.972,0Zm-3.4,0v.972a.486.486,0,1,1-.972,0v-.972a.486.486,0,1,1,.972,0Zm-3.4,0v.972a.486.486,0,1,1-.972,0v-.972a.486.486,0,1,1,.972,0Zm-.486-7.287a1.459,1.459,0,0,0,1.457-1.457h.486a1.457,1.457,0,1,0,2.915,0h.486a1.457,1.457,0,0,0,2.915,0h4.372v3.886h-.972a1.457,1.457,0,1,0-2.915,0h-.486a1.457,1.457,0,0,0-2.915,0H19.408a1.457,1.457,0,0,0-2.915,0H15.05V22.722h3.387A1.459,1.459,0,0,0,19.894,24.18Zm-.486-1.457v-.972a.486.486,0,1,1,.972,0v.972a.486.486,0,1,1-.972,0Zm3.4,0v-.972a.486.486,0,1,1,.972,0v.972a.486.486,0,1,1-.972,0Zm3.4,0v-.972a.486.486,0,1,1,.972,0v.972a.486.486,0,0,1-.972,0Zm4.372,3.886v.972a.486.486,0,0,1-.972,0v-.972a.486.486,0,1,1,.972,0Zm-3.4,0v.972a.486.486,0,0,1-.972,0v-.972a.486.486,0,0,1,.972,0Zm-8.744,0v.972a.486.486,0,0,1-.972,0v-.972a.486.486,0,1,1,.972,0Zm14.087-4.858H28.152a1.457,1.457,0,0,0-2.915,0h-.486a1.457,1.457,0,1,0-2.915,0h-.486a1.457,1.457,0,0,0-2.915,0H15.05V18.836H32.524ZM15.05,32.438h3.387a1.457,1.457,0,1,0,2.915,0h.486a1.457,1.457,0,1,0,2.915,0h.486a1.457,1.457,0,0,0,2.915,0h4.372v2.429H15.05ZM32.524,17.365v.5H15.05v-.5ZM13.093,15.929a.493.493,0,0,1,.986,0V34.867h-.986ZM35.925,36.81H11.636a.486.486,0,1,1,0-.972H35.925a.486.486,0,1,1,0,.972Z" transform="translate(-10.179 -14.464)"/></g></g></svg>