<svg id="headphones_1_" data-name="headphones (1)" xmlns="http://www.w3.org/2000/svg" width="26" height="26" viewBox="0 0 26 26">
  <g id="Group_2836" data-name="Group 2836" transform="translate(0 9.141)">
    <g id="Group_2833" data-name="Group 2833">
      <path id="Path_1392" data-name="Path 1392" d="M0,15.488v3.047a2.793,2.793,0,0,0,2.793,2.793H4.316a.762.762,0,0,0,.762-.762V12.7H2.793A2.793,2.793,0,0,0,0,15.488Z" transform="translate(0 -9.141)" fill="#3155a5"/>
      <path id="Path_1393" data-name="Path 1393" d="M17.824,14.98V10.918a1.779,1.779,0,0,0-1.777-1.777H9.953a1.779,1.779,0,0,0-1.777,1.777V14.98a1.779,1.779,0,0,0,1.777,1.777h1.755l2.835,2.362a.762.762,0,0,0,1.249-.585V16.758h.254A1.779,1.779,0,0,0,17.824,14.98Zm-3.809-1.27H11.984a.762.762,0,0,1,0-1.523h2.031a.762.762,0,0,1,0,1.523Z" transform="translate(0 -9.141)" fill="#e0c641"/>
      <path id="Path_1394" data-name="Path 1394" d="M10.207,24.477A1.523,1.523,0,0,0,11.73,26H14.27a1.523,1.523,0,0,0,0-3.047H11.73A1.523,1.523,0,0,0,10.207,24.477Z" transform="translate(0 -9.141)" fill="#3155a5"/>
    </g>
    <g id="Group_2835" data-name="Group 2835" transform="translate(17.206 3.555)">
      <g id="Group_2834" data-name="Group 2834" transform="translate(0 10.156)">
        <path id="Path_1395" data-name="Path 1395" d="M21.43,22.852V23a.763.763,0,0,1-.762.762H17.232a3.031,3.031,0,0,1-.026,1.523h3.462A2.288,2.288,0,0,0,22.953,23v-.152Z" transform="translate(-17.206 -22.852)" fill="#3155a5"/>
      </g>
      <path id="Path_1396" data-name="Path 1396" d="M23.207,12.7H20.922v7.871a.762.762,0,0,0,.762.762h1.523A2.793,2.793,0,0,0,26,18.535V15.488A2.793,2.793,0,0,0,23.207,12.7Z" transform="translate(-17.206 -12.695)" fill="#3155a5"/>
    </g>
  </g>
  <path id="Path_1397" data-name="Path 1397" d="M20.756,3.213A10.969,10.969,0,0,0,2.031,10.969v.2H5.078v-.2a7.922,7.922,0,0,1,15.844,0v.2h3.047v-.2A10.9,10.9,0,0,0,20.756,3.213Z" fill="#3155a5"/>
</svg>
