<svg xmlns="http://www.w3.org/2000/svg" width="24" height="24" viewBox="0 0 24 24"><defs><style>.a{fill:#3155a5;}.b{fill:#fefefe;}</style></defs><rect class="a" width="24" height="24" rx="12"/><path class="b" d="M6.8,4.127H4.446V1.773a.523.523,0,0,0-.523-.523H3.4a.523.523,0,0,0-.523.523V4.127H.523A.523.523,0,0,0,0,4.65v.523A.523.523,0,0,0,.523,5.7H2.877V8.049a.523.523,0,0,0,.523.523h.523a.523.523,0,0,0,.523-.523V5.7H6.8a.523.523,0,0,0,.523-.523V4.65A.523.523,0,0,0,6.8,4.127Z" transform="translate(8.163 6.913)"/></svg>