<svg xmlns="http://www.w3.org/2000/svg" xmlns:xlink="http://www.w3.org/1999/xlink" width="32" height="32.78" viewBox="0 0 32 32.78"><defs><style>.a,.c{fill:#3155a5;}.a{stroke:#707070;}.b{clip-path:url(#a);}</style><clipPath id="a"><rect class="a" width="32" height="32.78"/></clipPath></defs><g class="b"><g transform="translate(1.271 0.237)"><g transform="translate(0 0)"><path class="c" d="M13.806,32.468A13.819,13.819,0,0,0,26.22,24.862a13.3,13.3,0,0,0-1.562-14.267l1.295-1.267.488.478a1.679,1.679,0,0,0,1.611.443,1.64,1.64,0,0,0,1.183-1.159,1.6,1.6,0,0,0-.452-1.579L25.469,4.264a1.679,1.679,0,0,0-1.611-.443A1.64,1.64,0,0,0,22.675,4.98a1.6,1.6,0,0,0,.452,1.579l.488.478L22.322,8.3a13.875,13.875,0,0,0-6.308-2.717v-1.8h.276a1.913,1.913,0,0,0,1.932-1.894A1.913,1.913,0,0,0,16.29,0H11.321A1.913,1.913,0,0,0,9.389,1.894a1.913,1.913,0,0,0,1.932,1.894H11.6v1.8A13.587,13.587,0,0,0,.054,20.026,13.7,13.7,0,0,0,13.806,32.468Zm10.1-27.439a.56.56,0,0,1,.781,0L28,8.276a.534.534,0,0,1,0,.765.573.573,0,0,1-.781,0L23.905,5.794A.534.534,0,0,1,23.905,5.029ZM24.393,7.8l.776.761-1.229,1.2q-.373-.4-.776-.761Zm-13.9-5.908a.82.82,0,0,1,.828-.812H16.29a.812.812,0,1,1,0,1.623H11.321a.837.837,0,0,1-.586-.238A.8.8,0,0,1,10.493,1.894ZM12.7,3.788H14.91v1.67c-.365-.028-.732-.047-1.1-.047s-.739.019-1.1.047Zm1.1,2.706A12.574,12.574,0,0,1,26.5,18.94a12.574,12.574,0,0,1-12.7,12.446A12.574,12.574,0,0,1,1.107,18.94a12.588,12.588,0,0,1,12.7-12.446Z" transform="translate(-0.009 0)"/><path class="c" d="M15.209,34.145a10.825,10.825,0,1,0,0-21.645A10.934,10.934,0,0,0,4.167,23.323,10.947,10.947,0,0,0,15.209,34.145Zm0-20.563a9.742,9.742,0,1,1,0,19.481,9.742,9.742,0,1,1,0-19.481Z" transform="translate(-1.412 -4.383)"/><path class="c" d="M25,17.781a7.634,7.634,0,0,1,4.822,6.484H25.984a.541.541,0,1,0,0,1.082h3.843a1.1,1.1,0,0,0,1.1-1.175,8.724,8.724,0,0,0-5.512-7.395.561.561,0,0,0-.557.067.536.536,0,0,0-.21.51.544.544,0,0,0,.354.427Z" transform="translate(-8.323 -5.867)"/><path class="c" d="M19.708,26.269A2.187,2.187,0,0,0,21.917,24.1a2.1,2.1,0,0,0-.268-1.012l-.557-7.108a1.39,1.39,0,0,0-2.768,0l-.552,7.1A2.1,2.1,0,0,0,17.5,24.1,2.187,2.187,0,0,0,19.708,26.269Zm0-1.082a1.082,1.082,0,1,1,1.1-1.082A1.093,1.093,0,0,1,19.708,25.187Zm0-9.372a.284.284,0,0,1,.283.258l.47,6.007a2.124,2.124,0,0,0-1.506,0l.469-6a.285.285,0,0,1,.284-.265Z" transform="translate(-5.912 -5.165)"/><path class="c" d="M10.612,20.84a.534.534,0,0,0-.048-.752.56.56,0,0,0-.769.025,8.506,8.506,0,0,0-2.014,8.052.556.556,0,0,0,1.009.145.532.532,0,0,0,.062-.41A7.459,7.459,0,0,1,10.612,20.84Z" transform="translate(-2.531 -6.994)"/><ellipse class="c" cx="0.552" cy="0.541" rx="0.552" ry="0.541" transform="translate(8.828 11.364)"/></g></g></g></svg>