<svg xmlns="http://www.w3.org/2000/svg" xmlns:xlink="http://www.w3.org/1999/xlink" width="31.818" height="20" viewBox="0 0 31.818 20"><defs><style>.a,.c{fill:#f5f5f5;}.a{stroke:#707070;}.b{clip-path:url(#a);}</style><clipPath id="a"><rect class="a" width="31.818" height="20"/></clipPath></defs><g class="b"><g transform="translate(1.402 1.038)"><g transform="translate(2.443 6.109)"><path class="c" d="M18,23.774a.608.608,0,0,0-.687.263L14.774,28.1l-2.537-4.059a.611.611,0,0,0-1.129.324v4.277h-.133L9.868,24.213a.61.61,0,0,0-.593-.463H8.054a.615.615,0,0,0-.547.337L5.063,28.975a.612.612,0,0,0,1.095.547l2.274-4.55H8.8L9.905,29.4a.61.61,0,0,0,.593.463H11.72a.611.611,0,0,0,.611-.611V26.491l1.926,3.082a.635.635,0,0,0,1.036,0l1.926-3.082v2.758a.611.611,0,1,0,1.222,0V24.361A.609.609,0,0,0,18,23.774Z" transform="translate(-4.998 -23.75)"/></g><g transform="translate(17.106 6.109)"><path class="c" d="M42.584,26.8,44.6,24.792a.611.611,0,0,0-.864-.864L41.72,25.939l-2.011-2.011a.615.615,0,0,0-.433-.178H35.611a.611.611,0,0,0-.611.611v4.887a.611.611,0,0,0,.611.611h3.666a.611.611,0,0,0,.433-.18l2.011-2.011,2.011,2.012a.614.614,0,0,0,.433.178.6.6,0,0,0,.431-.18.611.611,0,0,0,0-.864Zm-3.561,1.833h-2.8V24.972h2.8L40.856,26.8Z" transform="translate(-35 -23.749)"/></g><g transform="translate(17.106 8.553)"><path class="c" d="M37.444,28.75H35.611a.611.611,0,0,0,0,1.222h1.833a.611.611,0,1,0,0-1.222Z" transform="translate(-35 -28.75)"/></g><g transform="translate(3.666 9.775)"><path class="c" d="M11.166,31.25H8.111a.611.611,0,1,0,0,1.222h3.055a.611.611,0,1,0,0-1.222Z" transform="translate(-7.5 -31.25)"/></g><g transform="translate(0 0)"><path class="c" d="M25.048,11.25H4.277A4.281,4.281,0,0,0,0,15.527V25.3a4.281,4.281,0,0,0,4.277,4.277H25.048A4.281,4.281,0,0,0,29.325,25.3V15.527A4.281,4.281,0,0,0,25.048,11.25ZM28.1,25.3a3.058,3.058,0,0,1-3.055,3.055H4.277A3.058,3.058,0,0,1,1.222,25.3V15.527a3.058,3.058,0,0,1,3.055-3.055H25.048A3.058,3.058,0,0,1,28.1,15.527Z" transform="translate(0 -11.25)"/></g></g></g></svg>